<?xml version="1.0" encoding="UTF-8" standalone="no"?>
<svg
   xmlns:dc="http://purl.org/dc/elements/1.1/"
   xmlns:cc="http://creativecommons.org/ns#"
   xmlns:rdf="http://www.w3.org/1999/02/22-rdf-syntax-ns#"
   xmlns:svg="http://www.w3.org/2000/svg"
   xmlns="http://www.w3.org/2000/svg"
   xmlns:sodipodi="http://sodipodi.sourceforge.net/DTD/sodipodi-0.dtd"
   xmlns:inkscape="http://www.inkscape.org/namespaces/inkscape"
   height="479.866"
   version="1.1"
   viewBox="0 0 479.867 479.866"
   width="479.867"
   xml:space="preserve"
   id="svg10"
   sodipodi:docname="tg.svg"
   inkscape:version="0.92.3 (3ce5693, 2018-03-11)"><metadata
     id="metadata16"><rdf:RDF><cc:Work
         rdf:about=""><dc:format>image/svg+xml</dc:format><dc:type
           rdf:resource="http://purl.org/dc/dcmitype/StillImage" /><dc:title></dc:title></cc:Work></rdf:RDF></metadata><defs
     id="defs14" /><sodipodi:namedview
     pagecolor="#ffffff"
     bordercolor="#666666"
     borderopacity="1"
     objecttolerance="10"
     gridtolerance="10"
     guidetolerance="10"
     inkscape:pageopacity="0"
     inkscape:pageshadow="2"
     inkscape:window-width="1301"
     inkscape:window-height="744"
     id="namedview12"
     showgrid="false"
     inkscape:pagecheckerboard="true"
     fit-margin-top="0"
     fit-margin-left="0"
     fit-margin-right="0"
     fit-margin-bottom="0"
     inkscape:zoom="0.4609375"
     inkscape:cx="311.47254"
     inkscape:cy="-96.193759"
     inkscape:window-x="65"
     inkscape:window-y="24"
     inkscape:window-maximized="1"
     inkscape:current-layer="svg10" /><path
     d="M 409.585,70.278 C 366.143,26.844 306.229,0 239.931,0 173.634,0 113.719,26.844 70.277,70.277 26.839,113.724 0,173.771 0,239.931 c 0,66.297 26.839,126.211 70.277,169.659 43.442,43.438 103.357,70.276 169.654,70.276 66.298,0 126.212,-26.839 169.654,-70.276 43.438,-43.448 70.282,-103.362 70.282,-169.659 0,-66.159 -26.843,-126.206 -70.282,-169.653 z m -13.282,326.154 c -39.993,39.988 -95.261,64.702 -156.372,64.702 -61.111,0 -116.379,-24.714 -156.372,-64.702 -40.112,-40.121 -64.826,-95.385 -64.826,-156.5 0,-61.107 24.714,-116.375 64.826,-156.363 39.993,-39.989 95.261,-64.835 156.372,-64.835 61.111,0 116.379,24.847 156.372,64.835 40.117,39.988 64.821,95.256 64.821,156.363 0,61.115 -24.704,116.379 -64.821,156.5 z"
     style="clip-rule:evenodd;fill:#ffffff;fill-opacity:1;fill-rule:evenodd"
     id="path2"
     inkscape:connector-curvature="0" /><g
     id="Layer_1"
     transform="translate(-16.029,-16.066)" /><path
     style="clip-rule:evenodd;fill:#ffffff;fill-rule:evenodd;stroke-width:4.37450457"
     inkscape:connector-curvature="0"
     d="m 236.67624,284.26949 c -7.88792,7.09687 -15.70756,14.07601 -23.45438,21.1098 -2.7082,2.46372 -5.75322,3.82592 -9.64029,3.63672 -2.65357,-0.13032 -4.13739,-1.20663 -4.95213,-3.5316 -5.93528,-17.01482 -11.95705,-33.98759 -17.86047,-51.01921 -0.5735,-1.6523 -1.4201,-2.45532 -3.23163,-2.97244 -13.98251,-3.94364 -27.93771,-7.97977 -41.87015,-12.07056 -2.1438,-0.63064 -4.30581,-1.45468 -6.15831,-2.61928 -2.86296,-1.79103 -3.2817,-4.71302 -0.7146,-6.81517 2.37139,-1.93818 5.20248,-3.62831 8.1428,-4.70461 17.09125,-6.25601 34.27353,-12.3102 51.42851,-18.41905 43.53603,-15.52649 87.07205,-31.04036 130.61263,-46.56685 8.27935,-2.95562 14.64249,1.20664 13.78224,9.4765 -0.55075,5.28901 -2.03457,10.49393 -3.23164,15.71568 -9.45367,41.23159 -18.91644,82.46738 -28.42017,123.69056 -2.25759,9.78762 -9.69945,12.34384 -18.42031,6.40316 -14.60608,-9.94318 -29.1985,-19.91999 -43.79548,-29.87998 -0.69639,-0.46667 -1.42009,-0.91653 -2.21662,-1.43367 z m -32.78516,12.52042 c 0.16386,-0.042 0.32772,-0.0841 0.49158,-0.12193 0.091,-0.3868 0.22302,-0.76518 0.25944,-1.14778 0.93763,-9.34615 1.92987,-18.68812 2.74461,-28.0511 0.18206,-2.08533 0.95584,-3.56524 2.65358,-4.96948 13.46363,-11.12038 26.84532,-22.31224 40.25433,-33.47886 14.84276,-12.36485 29.69007,-24.71709 44.47821,-37.13239 0.91487,-0.76518 1.2972,-2.06853 1.92532,-3.128 -1.39279,-0.13875 -2.88571,-0.65588 -4.15105,-0.35317 -1.72506,0.41202 -3.35908,1.33697 -4.89752,2.23249 -32.75785,19.0581 -65.48839,38.14983 -98.26899,57.1701 -1.8525,1.0763 -2.19842,1.98863 -1.49292,3.86796 2.41689,6.41156 4.61532,12.88197 6.89567,19.33978 3.03591,8.5936 6.07183,17.18299 9.10774,25.77238 z"
     id="path849" /></svg>