<?xml version="1.0" encoding="UTF-8" standalone="no"?>
<svg
   xmlns:dc="http://purl.org/dc/elements/1.1/"
   xmlns:cc="http://creativecommons.org/ns#"
   xmlns:rdf="http://www.w3.org/1999/02/22-rdf-syntax-ns#"
   xmlns:svg="http://www.w3.org/2000/svg"
   xmlns="http://www.w3.org/2000/svg"
   xmlns:sodipodi="http://sodipodi.sourceforge.net/DTD/sodipodi-0.dtd"
   xmlns:inkscape="http://www.inkscape.org/namespaces/inkscape"
   height="479.866"
   version="1.1"
   viewBox="0 0 479.867 479.866"
   width="479.867"
   xml:space="preserve"
   id="svg10"
   sodipodi:docname="vk.svg"
   inkscape:version="0.92.3 (3ce5693, 2018-03-11)"><metadata
     id="metadata16"><rdf:RDF><cc:Work
         rdf:about=""><dc:format>image/svg+xml</dc:format><dc:type
           rdf:resource="http://purl.org/dc/dcmitype/StillImage" /><dc:title></dc:title></cc:Work></rdf:RDF></metadata><defs
     id="defs14" /><sodipodi:namedview
     pagecolor="#ffffff"
     bordercolor="#666666"
     borderopacity="1"
     objecttolerance="10"
     gridtolerance="10"
     guidetolerance="10"
     inkscape:pageopacity="0"
     inkscape:pageshadow="2"
     inkscape:window-width="1301"
     inkscape:window-height="744"
     id="namedview12"
     showgrid="false"
     inkscape:pagecheckerboard="true"
     fit-margin-top="0"
     fit-margin-left="0"
     fit-margin-right="0"
     fit-margin-bottom="0"
     inkscape:zoom="0.4609375"
     inkscape:cx="239.971"
     inkscape:cy="239.932"
     inkscape:window-x="65"
     inkscape:window-y="24"
     inkscape:window-maximized="1"
     inkscape:current-layer="svg10" /><path
     d="M 409.585,70.278 C 366.143,26.844 306.229,0 239.931,0 173.634,0 113.719,26.844 70.277,70.277 26.839,113.724 0,173.771 0,239.931 c 0,66.297 26.839,126.211 70.277,169.659 43.442,43.438 103.357,70.276 169.654,70.276 66.298,0 126.212,-26.839 169.654,-70.276 43.438,-43.448 70.282,-103.362 70.282,-169.659 0,-66.159 -26.843,-126.206 -70.282,-169.653 z m -13.282,326.154 c -39.993,39.988 -95.261,64.702 -156.372,64.702 -61.111,0 -116.379,-24.714 -156.372,-64.702 -40.112,-40.121 -64.826,-95.385 -64.826,-156.5 0,-61.107 24.714,-116.375 64.826,-156.363 39.993,-39.989 95.261,-64.835 156.372,-64.835 61.111,0 116.379,24.847 156.372,64.835 40.117,39.988 64.821,95.256 64.821,156.363 0,61.115 -24.704,116.379 -64.821,156.5 z"
     style="clip-rule:evenodd;fill:#ffffff;fill-opacity:1;fill-rule:evenodd"
     id="path2"
     inkscape:connector-curvature="0" /><path
     d="m 372.649,173.109 c -3.586,-2.654 -16.471,-2.654 -29.224,-2.654 -13.021,0.265 -26.044,0.265 -29.101,1.462 -2.782,1.061 -9.028,16.207 -17.129,31.746 -9.308,17.545 -20.593,34.547 -27.771,34.272 -9.43,0 -7.168,-28.826 -6.506,-50.209 0.128,-13.954 -2.129,-18.474 -4.121,-19.661 -4.917,-3.459 -18.464,-6.771 -18.464,-6.771 0,0 -40.661,-3.062 -46.367,14.475 7.836,1.064 21.123,-1.334 15.941,53.001 -0.397,2.664 -6.246,24.979 -25.111,-5.181 -4.784,-7.566 -22.846,-52.869 -29.224,-53.134 -20.867,-0.402 -41.583,-1.33 -48.751,2.654 -6.781,3.989 9.028,35.072 35.734,76.793 21.648,34.272 44.635,60.847 84.491,67.485 7.571,0.804 26.972,1.59 33.218,-1.325 4.111,-1.997 -1.069,-31.485 13.149,-34.415 6.246,-1.191 30.549,30.828 39.714,34.415 5.594,2.257 17.811,3.185 30.298,2.649 13.552,-0.393 28.954,1.335 30.416,-7.963 3.327,-20.328 -41.039,-46.907 -42.24,-59.39 -1.065,-9.033 16.211,-25.637 24.974,-38.394 10.888,-15.411 22.855,-34.007 16.074,-39.855 z"
     style="clip-rule:evenodd;fill:#ffffff;fill-opacity:1;fill-rule:evenodd"
     id="path4"
     inkscape:connector-curvature="0" /><g
     id="Layer_1"
     transform="translate(-16.029,-16.066)" /></svg>