<?xml version="1.0" encoding="UTF-8" standalone="no"?>
<svg
   xmlns:dc="http://purl.org/dc/elements/1.1/"
   xmlns:cc="http://creativecommons.org/ns#"
   xmlns:rdf="http://www.w3.org/1999/02/22-rdf-syntax-ns#"
   xmlns:svg="http://www.w3.org/2000/svg"
   xmlns="http://www.w3.org/2000/svg"
   xmlns:sodipodi="http://sodipodi.sourceforge.net/DTD/sodipodi-0.dtd"
   xmlns:inkscape="http://www.inkscape.org/namespaces/inkscape"
   id="Layer_1"
   version="1.1"
   viewBox="0 0 44.200001 44.099998"
   xml:space="preserve"
   sodipodi:docname="schedule.svg"
   width="44.200001"
   height="44.099998"
   inkscape:version="0.92.3 (3ce5693, 2018-03-11)"><metadata
     id="metadata39"><rdf:RDF><cc:Work
         rdf:about=""><dc:format>image/svg+xml</dc:format><dc:type
           rdf:resource="http://purl.org/dc/dcmitype/StillImage" /><dc:title></dc:title></cc:Work></rdf:RDF></metadata><defs
     id="defs37" /><sodipodi:namedview
     pagecolor="#ffffff"
     bordercolor="#666666"
     borderopacity="1"
     objecttolerance="10"
     gridtolerance="10"
     guidetolerance="10"
     inkscape:pageopacity="0"
     inkscape:pageshadow="2"
     inkscape:window-width="1301"
     inkscape:window-height="744"
     id="namedview35"
     showgrid="false"
     fit-margin-top="0"
     fit-margin-left="0"
     fit-margin-right="0"
     fit-margin-bottom="0"
     inkscape:pagecheckerboard="true"
     inkscape:zoom="3.6875"
     inkscape:cx="22"
     inkscape:cy="22"
     inkscape:window-x="65"
     inkscape:window-y="24"
     inkscape:window-maximized="1"
     inkscape:current-layer="Layer_1" /><style
     type="text/css"
     id="style2">
	.st0{fill:#134563;}
</style><g
     id="g32"
     transform="translate(-10,-9.9)"
     style="fill:#595963;fill-opacity:1"><g
       id="Icon-Calendar"
       transform="translate(30,478)"
       style="fill:#595963;fill-opacity:1"><path
         class="st0"
         d="m 19.6,-424 h -35.2 c -2.4,0 -4.4,-2 -4.4,-4.4 v -32.3 c 0,-2.4 1.6,-4.4 3.7,-4.4 h 2.2 v 2.9 h -2.2 c -0.3,0 -0.7,0.6 -0.7,1.5 v 32.3 c 0,0.8 0.7,1.5 1.5,1.5 h 35.2 c 0.8,0 1.5,-0.7 1.5,-1.5 v -32.3 c 0,-0.9 -0.5,-1.5 -0.7,-1.5 h -2.2 v -2.9 h 2.2 c 2,0 3.7,2 3.7,4.4 v 32.3 C 24,-426 22,-424 19.6,-424"
         id="Fill-133"
         inkscape:connector-curvature="0"
         style="fill:#595963;fill-opacity:1" /><path
         class="st0"
         d="m -9.7,-459.2 c -0.8,0 -1.5,-0.7 -1.5,-1.5 v -5.9 c 0,-0.8 0.7,-1.5 1.5,-1.5 0.8,0 1.5,0.7 1.5,1.5 v 5.9 c -0.1,0.8 -0.7,1.5 -1.5,1.5"
         id="Fill-134"
         inkscape:connector-curvature="0"
         style="fill:#595963;fill-opacity:1" /><path
         class="st0"
         d="m 13.7,-459.2 c -0.8,0 -1.5,-0.7 -1.5,-1.5 v -5.9 c 0,-0.8 0.7,-1.5 1.5,-1.5 0.8,0 1.5,0.7 1.5,1.5 v 5.9 c 0,0.8 -0.7,1.5 -1.5,1.5"
         id="Fill-135"
         inkscape:connector-curvature="0"
         style="fill:#595963;fill-opacity:1" /><polygon
         class="st0"
         id="Fill-136"
         points="9.3,-462.1 -5.3,-462.1 -5.3,-465.1 9.3,-465.1 "
         style="fill:#595963;fill-opacity:1" /><polygon
         class="st0"
         id="Fill-137"
         points="21.1,-453.3 -17.1,-453.3 -17.1,-456.3 21.1,-456.3 "
         style="fill:#595963;fill-opacity:1" /><polygon
         class="st0"
         id="Fill-138"
         points="18.1,-447.5 15.2,-447.5 15.2,-450.4 18.1,-450.4 "
         style="fill:#595963;fill-opacity:1" /><polygon
         class="st0"
         id="Fill-139"
         points="12.3,-447.5 9.3,-447.5 9.3,-450.4 12.3,-450.4 "
         style="fill:#595963;fill-opacity:1" /><polygon
         class="st0"
         id="Fill-140"
         points="6.4,-447.5 3.5,-447.5 3.5,-450.4 6.4,-450.4 "
         style="fill:#595963;fill-opacity:1" /><polygon
         class="st0"
         id="Fill-141"
         points="0.5,-447.5 -2.4,-447.5 -2.4,-450.4 0.5,-450.4 "
         style="fill:#595963;fill-opacity:1" /><polygon
         class="st0"
         id="Fill-142"
         points="-5.3,-447.5 -8.3,-447.5 -8.3,-450.4 -5.3,-450.4 "
         style="fill:#595963;fill-opacity:1" /><polygon
         class="st0"
         id="Fill-143"
         points="18.1,-441.6 15.2,-441.6 15.2,-444.5 18.1,-444.5 "
         style="fill:#595963;fill-opacity:1" /><polygon
         class="st0"
         id="Fill-144"
         points="12.3,-441.6 9.3,-441.6 9.3,-444.5 12.3,-444.5 "
         style="fill:#595963;fill-opacity:1" /><polygon
         class="st0"
         id="Fill-145"
         points="6.4,-441.6 3.5,-441.6 3.5,-444.5 6.4,-444.5 "
         style="fill:#595963;fill-opacity:1" /><polygon
         class="st0"
         id="Fill-146"
         points="0.5,-441.6 -2.4,-441.6 -2.4,-444.5 0.5,-444.5 "
         style="fill:#595963;fill-opacity:1" /><polygon
         class="st0"
         id="Fill-147"
         points="-5.3,-441.6 -8.3,-441.6 -8.3,-444.5 -5.3,-444.5 "
         style="fill:#595963;fill-opacity:1" /><polygon
         class="st0"
         id="Fill-148"
         points="-11.2,-441.6 -14.1,-441.6 -14.1,-444.5 -11.2,-444.5 "
         style="fill:#595963;fill-opacity:1" /><polygon
         class="st0"
         id="Fill-149"
         points="18.1,-435.7 15.2,-435.7 15.2,-438.7 18.1,-438.7 "
         style="fill:#595963;fill-opacity:1" /><polygon
         class="st0"
         id="Fill-150"
         points="12.3,-435.7 9.3,-435.7 9.3,-438.7 12.3,-438.7 "
         style="fill:#595963;fill-opacity:1" /><polygon
         class="st0"
         id="Fill-151"
         points="6.4,-435.7 3.5,-435.7 3.5,-438.7 6.4,-438.7 "
         style="fill:#595963;fill-opacity:1" /><polygon
         class="st0"
         id="Fill-152"
         points="0.5,-435.7 -2.4,-435.7 -2.4,-438.7 0.5,-438.7 "
         style="fill:#595963;fill-opacity:1" /><polygon
         class="st0"
         id="Fill-153"
         points="-5.3,-435.7 -8.3,-435.7 -8.3,-438.7 -5.3,-438.7 "
         style="fill:#595963;fill-opacity:1" /><polygon
         class="st0"
         id="Fill-154"
         points="-11.2,-435.7 -14.1,-435.7 -14.1,-438.7 -11.2,-438.7 "
         style="fill:#595963;fill-opacity:1" /><polygon
         class="st0"
         id="Fill-155"
         points="12.3,-429.9 9.3,-429.9 9.3,-432.8 12.3,-432.8 "
         style="fill:#595963;fill-opacity:1" /><polygon
         class="st0"
         id="Fill-156"
         points="6.4,-429.9 3.5,-429.9 3.5,-432.8 6.4,-432.8 "
         style="fill:#595963;fill-opacity:1" /><polygon
         class="st0"
         id="Fill-157"
         points="0.5,-429.9 -2.4,-429.9 -2.4,-432.8 0.5,-432.8 "
         style="fill:#595963;fill-opacity:1" /><polygon
         class="st0"
         id="Fill-158"
         points="-5.3,-429.9 -8.3,-429.9 -8.3,-432.8 -5.3,-432.8 "
         style="fill:#595963;fill-opacity:1" /><polygon
         class="st0"
         id="Fill-159"
         points="-11.2,-429.9 -14.1,-429.9 -14.1,-432.8 -11.2,-432.8 "
         style="fill:#595963;fill-opacity:1" /></g></g></svg>