<?xml version="1.0" standalone="no"?>
<!DOCTYPE svg PUBLIC "-//W3C//DTD SVG 20010904//EN"
 "http://www.w3.org/TR/2001/REC-SVG-20010904/DTD/svg10.dtd">
<svg version="1.0" xmlns="http://www.w3.org/2000/svg"
 width="700.000000pt" height="700.000000pt" viewBox="0 0 700.000000 700.000000"
 preserveAspectRatio="xMidYMid meet">
<metadata>
Created by potrace 1.11, written by Peter Selinger 2001-2013
</metadata>
<g transform="translate(0.000000,700.000000) scale(0.100000,-0.100000)"
fill="#000000" stroke="none">
<path d="M3298 6945 c-1 -1 -46 -6 -98 -10 -52 -4 -102 -9 -111 -10 -9 -2 -40
-6 -69 -10 -29 -4 -60 -8 -69 -10 -9 -1 -56 -10 -106 -20 -49 -9 -126 -25
-170 -37 -44 -11 -87 -21 -95 -23 -34 -7 -222 -70 -320 -107 -108 -41 -373
-163 -400 -184 -8 -6 -35 -22 -59 -34 -70 -35 -227 -137 -347 -225 -243 -180
-449 -378 -663 -640 -147 -180 -354 -524 -446 -740 -42 -99 -87 -211 -90 -225
-2 -8 -16 -49 -30 -90 -32 -91 -27 -74 -70 -245 -34 -138 -59 -263 -70 -360
-4 -27 -8 -61 -10 -73 -25 -156 -25 -666 0 -801 1 -9 6 -42 9 -74 24 -206 91
-473 179 -717 35 -96 123 -307 137 -325 4 -5 27 -48 50 -95 88 -171 223 -376
374 -565 109 -136 373 -400 501 -500 21 -16 43 -35 50 -42 42 -41 304 -216
425 -285 364 -206 854 -371 1225 -413 33 -4 67 -9 76 -10 135 -26 700 -25 799
0 8 2 42 6 75 10 81 9 249 41 370 71 1225 309 2192 1277 2500 2504 13 52 27
111 30 130 3 19 8 42 10 50 2 8 7 35 10 60 4 24 8 47 10 50 2 3 6 34 10 70 4
36 8 67 10 70 2 3 7 50 11 105 15 194 9 584 -11 707 -2 13 -6 46 -10 73 -19
157 -83 436 -135 595 -217 651 -602 1204 -1135 1629 -49 39 -95 76 -102 81
-78 64 -343 225 -498 303 -324 163 -724 289 -1055 331 -19 3 -55 7 -80 10 -25
4 -67 9 -95 12 -57 6 -511 14 -517 9z"/>
</g>
</svg>
