<?xml version="1.0" encoding="UTF-8" standalone="no"?>
<!-- Svg Vector Icons : http://www.onlinewebfonts.com/icon -->

<svg
   xmlns:dc="http://purl.org/dc/elements/1.1/"
   xmlns:cc="http://creativecommons.org/ns#"
   xmlns:rdf="http://www.w3.org/1999/02/22-rdf-syntax-ns#"
   xmlns:svg="http://www.w3.org/2000/svg"
   xmlns="http://www.w3.org/2000/svg"
   xmlns:sodipodi="http://sodipodi.sourceforge.net/DTD/sodipodi-0.dtd"
   xmlns:inkscape="http://www.inkscape.org/namespaces/inkscape"
   version="1.1"
   x="0px"
   y="0px"
   viewBox="0 0 1000 1000"
   enable-background="new 0 0 1000 1000"
   xml:space="preserve"
   id="svg10"
   sodipodi:docname="door.svg"
   inkscape:version="0.92.3 (3ce5693, 2018-03-11)"><defs
   id="defs14" /><sodipodi:namedview
   pagecolor="#ffffff"
   bordercolor="#666666"
   borderopacity="1"
   objecttolerance="10"
   gridtolerance="10"
   guidetolerance="10"
   inkscape:pageopacity="0"
   inkscape:pageshadow="2"
   inkscape:window-width="1301"
   inkscape:window-height="744"
   id="namedview12"
   showgrid="false"
   inkscape:zoom="0.236"
   inkscape:cx="578.38983"
   inkscape:cy="500"
   inkscape:window-x="65"
   inkscape:window-y="24"
   inkscape:window-maximized="1"
   inkscape:current-layer="svg10" />
<metadata
   id="metadata2"> Svg Vector Icons : http://www.onlinewebfonts.com/icon <rdf:RDF><cc:Work
     rdf:about=""><dc:format>image/svg+xml</dc:format><dc:type
       rdf:resource="http://purl.org/dc/dcmitype/StillImage" /></cc:Work></rdf:RDF></metadata>
<g
   id="g8"
   style="fill:#595963;fill-opacity:0.94117647"><g
     transform="matrix(1 0 0 -1 0 1920)"
     id="g6"
     style="fill:#595963;fill-opacity:0.94117647"><path
       d="M438.8,930c-9.3,0-17.6,2.9-24.9,8.6c-10.6,8.2-15.9,18.9-15.9,32.3v898.3c0,13.3,5.3,24.1,15.9,32.3c7.4,5.7,15.7,8.6,24.9,8.6c3.5,0,7.1-0.5,10.6-1.6l408.3-81.7c3-0.5,5.6-1.4,8-2.5c2.3-1.1,4.1-2,5.5-2.9c1.4-0.8,2.7-1.9,4.1-3.3c1.4-1.4,2.3-2.5,2.9-3.3l2.5-3.7c4.9-7.1,7.3-15,7.3-23.7v-735c0-11.2-2.6-19.7-7.8-25.7c-6.3-7.3-13.7-11.8-22.5-13.5l-408.3-81.7C445.8,930.5,442.3,930,438.8,930z M193.8,1011.7c-22.6,0-41.9,8-57.8,23.9c-15.9,15.9-23.9,35.2-23.9,57.8v653.3c0,22.6,8,41.9,23.9,57.8c15.9,15.9,35.2,23.9,57.8,23.9h163.3v-81.7H193.8v-653.3h163.3v-81.7H193.8z M540.8,1399.6c11.2,0,20.8,4,28.8,12c8,8,12,17.6,12,28.8c0,7.3-1.8,14.2-5.5,20.4c-3.7,6.3-8.6,11.2-14.9,14.9c-6.3,3.7-13.1,5.5-20.4,5.5c-7.4,0-14.2-1.8-20.4-5.5c-6.3-3.7-11.2-8.6-14.9-14.9c-3.7-6.3-5.5-13.1-5.5-20.4c0-3.8,0.5-7.5,1.4-11c1-3.5,2.3-6.7,4.1-9.6c1.8-2.9,3.9-5.6,6.5-8.2c2.6-2.6,5.3-4.8,8.2-6.5c2.9-1.8,6.1-3.1,9.6-4.1S537,1399.6,540.8,1399.6z"
       id="path4"
       style="fill:#595963;fill-opacity:0.94117647" /></g></g>
</svg>