<?xml version="1.0" encoding="UTF-8" standalone="no"?>
<!-- Created with Inkscape (http://www.inkscape.org/) -->

<svg
   xmlns:dc="http://purl.org/dc/elements/1.1/"
   xmlns:cc="http://creativecommons.org/ns#"
   xmlns:rdf="http://www.w3.org/1999/02/22-rdf-syntax-ns#"
   xmlns:svg="http://www.w3.org/2000/svg"
   xmlns="http://www.w3.org/2000/svg"
   xmlns:xlink="http://www.w3.org/1999/xlink"
   xmlns:sodipodi="http://sodipodi.sourceforge.net/DTD/sodipodi-0.dtd"
   xmlns:inkscape="http://www.inkscape.org/namespaces/inkscape"
   width="40.34428mm"
   height="40.34428mm"
   viewBox="0 0 40.344281 40.344281"
   version="1.1"
   id="svg8"
   inkscape:version="0.92.3 (3ce5693, 2018-03-11)"
   sodipodi:docname="no-lessons.svg">
  <defs
     id="defs2">
    <linearGradient
       inkscape:collect="always"
       id="linearGradient1022">
      <stop
         style="stop-color:#836a9b;stop-opacity:1;"
         offset="0"
         id="stop1018" />
      <stop
         style="stop-color:#5ba479;stop-opacity:1"
         offset="1"
         id="stop1020" />
    </linearGradient>
    <inkscape:path-effect
       effect="bspline"
       id="path-effect837"
       is_visible="true"
       weight="33.333333"
       steps="2"
       helper_size="0"
       apply_no_weight="true"
       apply_with_weight="true"
       only_selected="false" />
    <linearGradient
       inkscape:collect="always"
       xlink:href="#linearGradient1022"
       id="linearGradient1016"
       x1="231.87529"
       y1="682.82666"
       x2="232.58957"
       y2="806.75531"
       gradientUnits="userSpaceOnUse" />
    <linearGradient
       inkscape:collect="always"
       xlink:href="#linearGradient1022"
       id="linearGradient1024"
       x1="159.29048"
       y1="798.03387"
       x2="304.52905"
       y2="798.03387"
       gradientUnits="userSpaceOnUse" />
  </defs>
  <sodipodi:namedview
     id="base"
     pagecolor="#ffffff"
     bordercolor="#666666"
     borderopacity="1.0"
     inkscape:pageopacity="0.0"
     inkscape:pageshadow="2"
     inkscape:zoom="2.8"
     inkscape:cx="54.069059"
     inkscape:cy="58.681448"
     inkscape:document-units="mm"
     inkscape:current-layer="layer2"
     showgrid="false"
     inkscape:window-width="1301"
     inkscape:window-height="744"
     inkscape:window-x="65"
     inkscape:window-y="24"
     inkscape:window-maximized="1"
     fit-margin-top="0"
     fit-margin-left="0"
     fit-margin-right="0"
     fit-margin-bottom="0"
     inkscape:pagecheckerboard="true" />
  <metadata
     id="metadata5">
    <rdf:RDF>
      <cc:Work
         rdf:about="">
        <dc:format>image/svg+xml</dc:format>
        <dc:type
           rdf:resource="http://purl.org/dc/dcmitype/StillImage" />
        <dc:title />
      </cc:Work>
    </rdf:RDF>
  </metadata>
  <g
     inkscape:groupmode="layer"
     id="layer4"
     inkscape:label="Layer 4"
     style="display:none"
     transform="translate(-41.166222,-179.67538)">
    <path
       style="fill:url(#linearGradient1024);fill-opacity:1;stroke:none;stroke-width:0.35714287"
       d="m 302.95573,768.15204 c -3.66466,1.37552 -7.57376,2.03549 -11.51714,1.74596 -3.88095,0.23024 -8.09002,-0.6529 -11.73621,0.98284 -1.84128,1.71933 -2.588,4.34167 -4.25835,6.24814 -6.00389,8.10029 -12.25579,16.60171 -21.22993,21.6648 -5.9869,3.1219 -13.03205,3.64364 -19.52846,2.1324 -8.2022,-2.23305 -15.79259,-7.02916 -24.50851,-7.0618 -13.34668,-0.43125 -27.46118,0.90685 -39.17243,7.84514 -4.19338,2.88229 -8.51845,6.04016 -11.26884,10.39481 -0.70946,3.38404 -0.58708,7.09601 0.48061,10.40946 1.23958,3.07807 4.62412,5.13195 7.79995,5.3851 42.08663,-0.0873 84.17632,0.21471 126.26091,-0.23208 2.80503,0.31618 5.59295,-0.63479 7.46397,-2.78346 2.0049,-1.94183 3.12013,-4.62965 2.64529,-7.4379 -0.0541,-15.83607 0.3733,-31.68267 -0.0386,-47.51258 -0.0345,-0.81027 -0.39534,-1.84828 -1.3923,-1.78083 z"
       id="path990"
       inkscape:connector-curvature="0"
       transform="scale(0.26458333)" />
    <path
       style="fill:#ffdcc3;fill-opacity:1;stroke:none;stroke-width:0.17857143"
       d="m 251.57488,739.11659 c -3.48401,0.0984 -6.42804,2.24986 -9.62513,3.37899 -4.62082,1.99066 -9.76234,2.57724 -14.71325,2.12569 -3.0486,-0.20849 -6.1231,-0.59885 -9.1619,-0.99331 -1.18638,0.11417 -1.21206,1.63408 -0.49317,2.32004 1.49327,2.36332 3.71717,4.16362 6.15758,5.47956 -0.007,1.17874 -0.51024,1.76828 -1.73689,1.44392 -3.94212,0.0329 -7.88144,3.4e-4 -11.76479,-0.80183 -1.41796,-0.0785 -1.29827,1.63573 -1.44867,2.60629 -0.7939,6.1829 -1.63598,12.78353 0.96388,18.68068 2.37609,5.52548 6.27368,10.19279 9.26747,15.37368 2.05952,3.18812 4.17131,6.93002 8.00787,8.18169 4.94881,1.95846 10.12293,4.04549 15.55913,3.57144 4.38155,-0.11509 8.77845,-1.34116 12.50654,-3.6594 6.69638,-4.45742 11.98056,-10.68573 16.7954,-17.05213 2.10151,-2.99137 4.42522,-5.89493 5.95232,-9.2358 0.78862,-2.0783 0.58489,-4.37091 0.37144,-6.53495 0.68544,-0.65804 1.38697,-1.19172 2.31306,-0.67208 2.18458,0.55465 4.95421,0.49866 6.37835,-1.54402 2.71607,-3.73114 2.71947,-8.9722 0.80566,-13.06013 -1.56016,-3.44297 -4.85258,-6.75891 -8.8909,-6.54506 -2.81954,0.1532 -4.80575,2.66524 -5.50677,5.21484 -0.38028,1.13215 -0.77715,2.30171 -0.93506,3.47343 -0.75357,0.2474 -1.64633,0.76509 -2.1226,-0.17245 -4.44341,-4.37299 -8.87845,-9.3831 -15.10605,-11.11487 -1.16226,-0.31661 -2.36742,-0.49267 -3.57352,-0.46422 z m 26.47042,10.11928 c 0.90577,0.14579 0.51787,0.69399 0.25844,1.23745 -0.37583,0.84934 -0.96788,2.27992 0.27625,2.69844 1.55192,0.0597 3.15414,-0.93666 4.7105,-0.27936 1.3232,1.02949 0.50027,2.94156 -0.0711,4.17795 -0.30867,0.40091 -0.42591,1.4722 -0.89019,1.45814 -0.69721,-0.23363 -1.03247,-0.61452 -0.52548,-1.24644 0.38721,-0.95022 1.44405,-2.4359 0.18625,-3.18568 -1.48845,-0.4832 -3.06914,0.98224 -4.54695,0.13218 -1.46179,-1.01389 -0.69479,-3.10185 -0.1852,-4.45103 0.23415,-0.3831 0.20505,-1.12267 0.78753,-0.54165 z m -21.18687,9.75307 c 0.90749,0.10274 0.48253,0.6431 0.16357,1.14328 -1.57557,2.89075 -4.58586,5.28374 -8.02592,5.03658 -1.03945,-0.0422 -2.28591,0.0716 -3.14735,-0.27096 0.15399,-0.44856 0.0228,-1.37192 0.72859,-1.00934 2.53348,0.39901 5.43091,0.20432 7.30852,-1.76514 1.02937,-0.94983 1.85301,-2.1086 2.46861,-3.36391 0.168,0.0765 0.33599,0.153 0.50398,0.22949 z m 2.65939,7.30504 c 0.5233,0.16327 1.47342,0.10261 0.95563,0.90402 -0.35108,1.27212 -0.6315,2.7007 -1.06968,3.86091 -0.35411,-0.2246 -1.42362,-0.0898 -0.98921,-0.7695 0.35308,-1.33266 0.70453,-2.6892 1.10326,-3.99543 z m -4.72273,2.76297 c 0.4557,0.18133 1.42871,0.111 0.97441,0.83452 -0.34488,1.31031 -0.65073,2.63257 -1.05149,3.92727 -1.45464,0.0272 -1.02023,-1.03109 -0.68936,-2.03688 0.26458,-0.89933 0.44445,-1.90507 0.76644,-2.72491 z m -24.00495,1.80141 c 0.72677,0.19976 1.26541,0.48891 0.56013,1.18548 -1.41491,2.66691 -4.04788,5.02706 -7.24366,4.86712 -0.77386,0.013 -1.55628,-0.0306 -2.30817,-0.22635 0.15997,-0.6149 0.22543,-1.37843 1.01986,-1.01321 2.11631,0.27501 4.43284,-0.27199 5.80003,-2.01658 0.80174,-0.8513 1.47302,-1.82164 1.99568,-2.86726 l 0.16569,0.0666 z m 19.60031,0.23682 c 0.8036,0.0281 1.36576,0.2882 0.8884,1.16405 -0.25875,1.16201 -0.55087,2.30212 -0.86225,3.43347 -1.2092,0.0219 -1.2597,-0.66239 -0.81613,-1.62983 0.26465,-0.99896 0.46333,-2.02857 0.78998,-2.96769 z m -17.66253,7.71101 c 0.58586,0.13116 1.42203,0.14544 0.96311,0.92384 -0.31212,1.29174 -0.65968,2.57467 -1.02275,3.85294 -1.02838,-0.0657 -1.36898,-0.55603 -0.83706,-1.50321 0.29508,-1.10379 0.58746,-2.20614 0.8967,-3.27357 z m 7.25376,0.58768 c 0.7464,0.14891 1.25827,0.38963 1.06725,1.23535 0.0813,0.96495 1.01055,1.75704 1.98626,1.52169 0.0448,0.44901 0.67671,1.39435 -0.16253,1.22385 -1.98958,0.22617 -3.30466,-1.7858 -3.04095,-3.59131 0.0625,-0.0889 -0.0827,-0.55386 0.14997,-0.38958 z m -11.96428,2.2161 c 0.44377,0.17657 1.47735,0.0215 0.97307,0.79206 -0.33051,1.29564 -0.66323,2.62694 -1.06654,3.92299 -1.07387,-0.0202 -1.30548,-0.5715 -0.81268,-1.51943 0.30636,-1.04362 0.51895,-2.25783 0.90615,-3.19562 z m -4.40918,2.03264 c 0.45208,0.1549 1.43069,0.0172 0.97342,0.76556 -0.29607,1.2798 -0.60167,2.55881 -0.98563,3.81557 -0.57979,-0.15689 -1.48584,-0.14018 -0.95419,-0.96365 0.33758,-1.21156 0.54851,-2.51275 0.9664,-3.61748 z m 27.75565,2.5443 c 0.52675,0.0924 1.41206,0.002 0.90262,0.74986 -0.59617,2.28103 -2.28539,4.56455 -4.80469,4.7562 -1.52271,0.081 -3.09703,0.13801 -4.59507,-0.31982 0.13282,-0.8064 0.36683,-1.41173 1.23064,-0.97832 1.97246,0.31809 4.43504,0.45774 5.77096,-1.34625 0.64979,-0.85099 1.0992,-1.84858 1.39091,-2.87528 z"
       id="path1004"
       inkscape:connector-curvature="0"
       transform="scale(0.26458333)" />
    <path
       style="fill:#787886;fill-opacity:1;stroke:none;stroke-width:0.17857143"
       d="m 252.37915,695.73873 c -10.48706,0.92188 -21.31119,1.86599 -30.88152,6.63152 -1.19029,0.57715 -2.35451,1.20655 -3.50185,1.86458 -0.59462,-0.33927 -1.59857,-0.34717 -1.49345,-1.25489 -0.15902,-0.8963 -0.0448,-2.45628 -1.34707,-2.40707 -1.32565,0.34278 -2.15697,1.67819 -3.23851,2.4618 -3.99867,3.66669 -8.68595,6.45591 -13.49341,8.90793 -4.93907,2.56767 -9.48385,6.11301 -12.48672,10.86237 -3.96597,6.30226 -6.70223,13.6601 -6.52867,21.18711 0.11308,6.46365 2.9221,12.66136 7.23215,17.41176 5.54163,6.29003 13.00301,10.63152 20.76129,13.57683 1.1792,0.25105 1.44038,-1.23686 0.90359,-2.01741 -2.43684,-6.1541 -1.35526,-12.78805 -0.65068,-19.15892 0.29266,-1.03268 -0.20732,-2.5445 1.0183,-3.02798 0.83159,-0.6624 1.92608,0.24615 2.88799,0.27119 2.41993,0.48119 4.9518,0.80101 7.39346,0.49357 1.26602,-0.5275 0.29555,-1.92832 -0.46134,-2.47982 -1.60598,-1.62987 -2.85407,-3.66929 -3.4894,-5.84349 0.50495,-0.72294 1.09864,-1.45089 2.06073,-0.99555 6.31142,0.93079 12.78484,1.93618 19.14149,0.83616 4.40512,-0.82944 8.2481,-3.26817 12.43757,-4.71436 3.21053,-0.68327 6.71123,-0.45381 9.65532,1.08757 4.59051,2.05397 8.11034,5.77438 11.83045,9.11542 0.92453,0.68969 1.82378,-0.38533 1.91309,-1.29032 0.83652,-2.7159 2.66042,-5.51513 5.63643,-6.09982 2.0999,-0.55233 4.23688,0.10354 6.14293,0.97203 1.35941,0.24145 1.78326,-1.48628 2.46494,-2.32519 2.01346,-3.02774 3.10489,-6.55866 3.45614,-10.16121 0.34755,-3.66485 1.4427,-7.24481 3.34196,-10.40736 0.69762,-1.45634 1.98486,-2.59185 2.53,-4.09843 -0.40129,-1.40754 -2.25509,-1.08886 -3.39879,-1.47251 -5.51945,-0.96308 -11.26195,-0.9022 -16.70131,-1.66714 -2.10674,-0.22265 -3.75299,-2.53216 -2.85749,-4.56752 0.4391,-1.54775 1.77102,-2.50594 2.81878,-3.60386 0.65369,-1.0827 -0.62244,-1.94419 -1.60889,-1.91441 -7.23651,-1.11294 -14.62008,-0.9738 -21.89104,-0.27832 -0.28864,-0.51492 -1.31018,-1.02652 -0.6543,-1.65911 0.59005,-1.19526 2.02505,-1.89246 2.29318,-3.23312 -0.011,-0.63762 -0.61993,-1.09955 -1.23535,-1.00203 z"
       id="path1006"
       inkscape:connector-curvature="0"
       transform="scale(0.26458333)" />
    <path
       style="fill:url(#linearGradient1016);fill-opacity:1;stroke:none;stroke-width:0.35714287"
       d="m 231.87529,682.82672 c -21.81019,0.0636 -43.64771,-0.12246 -65.44084,0.097 -3.81966,1.24528 -7.27991,4.74783 -6.89346,9.0082 -0.47734,30.54448 -0.21308,61.09751 -0.2452,91.64539 0.049,7.74593 -0.021,15.49653 0.15972,23.2394 1.11879,2.08281 2.93289,-0.579 4.09602,-1.29611 2.80087,-2.53913 6.03919,-4.60691 9.15338,-6.68041 0.69717,-1.53063 -1.06959,-3.09332 -1.48704,-4.57034 -5.87839,-11.0035 -8.13355,-23.4783 -7.81635,-35.86692 0.19652,-17.42371 4.95992,-34.46579 11.46415,-50.53013 1.63058,-2.51794 5.17834,-2.30552 7.70866,-3.38982 9.04732,-2.81609 18.83681,-1.65076 28.17953,-2.37632 1.96609,-1.41559 3.64093,-3.29325 5.49504,-4.88677 2.62975,0.43863 0.69866,3.01144 1.3282,4.72374 1.62458,1.09034 3.36958,-1.15534 5.04457,-1.54363 11.06256,-5.00534 23.46885,-5.05812 35.25251,-6.51576 0.83786,1.06714 0.43094,1.98063 -0.72475,2.53208 -0.95246,0.71578 -3.12334,2.03216 -1.61621,3.26033 5.4667,0.59756 10.93592,-0.23362 16.40797,0.68077 2.66246,0.45304 5.54023,0.76741 7.97888,1.83666 -0.0294,0.96544 -0.0148,2.01139 -1.23395,1.84362 -2.22168,0.76914 -5.38043,2.5828 -4.76074,5.35295 1.55042,2.12137 4.72399,1.43876 7.00753,1.87082 5.42059,0.51519 11.07567,0.54347 16.24791,2.37095 1.37131,1.57411 -0.82713,2.84486 -1.49843,4.12754 -1.60265,1.6684 -1.9732,3.90182 -1.64091,6.12185 0.39654,7.56432 0.44739,15.85168 5.24662,22.16551 1.18991,1.48194 1.96074,3.56429 3.6942,4.47126 2.11658,-0.24693 0.96354,-3.0687 1.33091,-4.48451 0.13478,-17.74617 0.36107,-35.50294 -0.0837,-53.24498 0.12454,-3.38527 -1.19441,-6.96581 -4.36593,-8.56724 -3.15104,-2.3502 -7.19416,-1.08617 -10.8259,-1.39816 -19.05413,10e-4 -38.10826,0.002 -57.16239,0.003 z"
       id="path1008"
       inkscape:connector-curvature="0"
       transform="scale(0.26458333)" />
    <path
       style="fill:#ffffff;fill-opacity:1;stroke:none;stroke-width:0.25253814"
       d="m 41.851058,24.978213 c -6.986693,0.196955 -13.89322,1.739407 -20.501953,3.940976 -1.333337,1.345613 -1.494416,3.511148 -2.322246,5.186257 -6.436529,17.525838 -11.0389671,36.307178 -9.0759258,55.089861 1.0416708,9.602778 3.9826048,19.083253 8.9739048,27.364973 1.437153,0.7182 2.978352,-0.64934 4.410045,-0.9189 0.929866,-0.32087 2.795338,-0.81744 2.062724,-2.1811 -0.644562,-0.8136 -1.734913,-1.07014 -2.630934,-1.50734 3.720132,-9.70607 4.006808,-20.294697 4.211741,-30.54252 -1.989741,-3.354343 -4.083228,-6.77572 -5.024208,-10.630482 -1.04381,-3.756058 -0.558253,-7.722066 -0.563176,-11.569489 0.752485,-5.86537 3.156469,-11.458098 6.109746,-16.582187 2.734441,-4.390062 6.471181,-8.129499 11.002286,-10.654374 2.988205,-1.87936 6.230881,-3.386259 9.214088,-5.223491 1.212906,-1.830277 -1.698354,-1.858781 -2.883705,-1.748612 -0.993841,-0.02951 -1.988195,-0.04601 -2.982387,-0.02357 z"
       id="path1091"
       inkscape:connector-curvature="0"
       transform="matrix(0.26458333,0,0,0.26458333,41.298514,179.80767)" />
    <path
       style="fill:#ffffff;fill-opacity:1;stroke:none;stroke-width:0.25253814"
       d="m 30.894257,86.34646 c -1.427645,0.849728 -0.598922,2.898158 -0.879305,4.254048 -0.292549,7.523903 -1.631977,15.019222 -3.942595,22.234832 -0.444314,1.35747 1.183813,2.06514 2.216614,1.36923 9.019322,-2.15082 18.507774,-2.75241 27.811748,-2.16877 1.694602,0.002 3.384125,0.65782 5.048791,0.41876 1.158902,-1.34676 -0.806117,-2.71391 -1.310534,-3.97945 -2.121485,-3.21669 -4.151103,-6.53624 -6.346008,-9.67191 -1.608693,-1.222241 -3.788365,-1.338182 -5.5514,-2.313289 -5.814886,-2.536438 -11.363613,-5.760148 -16.13186,-9.99252 -0.265699,-0.22293 -0.598234,-0.144857 -0.915451,-0.150931 z"
       id="path1093"
       inkscape:connector-curvature="0"
       transform="matrix(0.26458333,0,0,0.26458333,41.298514,179.80767)" />
    <path
       style="fill:#ffffff;fill-opacity:1;stroke:none;stroke-width:0.00558036"
       d="m 125.34047,86.119144 c -0.32234,0.03108 -0.62323,0.228343 -0.77725,0.513626 -0.10433,0.184405 -0.14084,0.401742 -0.11986,0.61137 0.001,0.302209 0.14295,0.601754 0.38281,0.787214 0.22666,0.182176 0.53442,0.252433 0.81885,0.196186 0.16719,-0.02985 0.33632,-0.04896 0.50255,-0.08371 0.31509,-0.07118 0.58811,-0.303824 0.70523,-0.605269 0.13214,-0.323034 0.0764,-0.713532 -0.14182,-0.9861 -0.17029,-0.222079 -0.43812,-0.359649 -0.71554,-0.384148 -0.17191,-0.01567 -0.34329,-0.03706 -0.51502,-0.05335 -0.0468,-0.0015 -0.0933,3.11e-4 -0.13995,0.0042 z m 0.27375,0.0099 c 0.10065,0.01804 -0.029,-0.0045 0,0 z"
       id="path1097"
       inkscape:connector-curvature="0"
       transform="matrix(0.26458333,0,0,0.26458333,41.298514,179.80767)" />
    <path
       style="fill:#ffffff;fill-opacity:1;stroke:none;stroke-width:0.12626907"
       d="m 135.52423,55.893813 c -1.23281,0.223365 -1.28069,1.75039 -1.85779,2.623289 -0.74287,1.662883 -1.86635,3.114253 -2.69851,4.722759 -0.32415,1.126925 0.98716,1.737938 1.3569,2.660775 2.72696,4.076375 3.62244,9.390338 2.05975,14.075846 -0.6833,2.494232 -2.33055,4.831701 -4.75702,5.865789 -0.8964,0.564455 -0.40035,2.014128 0.6237,2.031156 3.5745,0.279759 7.22939,0.654692 10.80275,-0.01395 1.9927,-0.42256 4.04127,-0.95717 5.77004,-2.049952 0.71168,-0.718744 0.19462,-1.859683 0.25256,-2.769837 -0.26059,-4.521647 -1.46423,-9.065603 -4.0804,-12.814034 -1.55281,-2.197878 -3.2866,-4.313053 -4.25745,-6.856725 -0.96466,-2.128477 -1.50378,-4.405903 -2.10499,-6.651162 -0.14562,-0.48335 -0.58947,-0.857614 -1.10954,-0.823954 z"
       id="path1099"
       inkscape:connector-curvature="0"
       transform="matrix(0.26458333,0,0,0.26458333,41.298514,179.80767)" />
  </g>
  <g
     inkscape:groupmode="layer"
     id="layer2"
     inkscape:label="Layer 2"
     style="display:inline"
     transform="translate(-41.166222,-179.67538)">
    <path
       style="display:inline;opacity:1;fill:none;fill-opacity:1;stroke:#ffffff;stroke-width:1.087;stroke-linecap:butt;stroke-linejoin:bevel;stroke-miterlimit:4;stroke-dasharray:none;stroke-opacity:1"
       d="m 44.578897,180.46913 h 33.518929 c 1.450885,0 2.618925,1.16804 2.618925,2.61893 v 33.51893 c 0,1.45088 -1.16804,2.61892 -2.618925,2.61892 H 44.578897 c -1.450884,0 -2.618925,-1.16804 -2.618925,-2.61892 v -33.51893 c 0,-1.45089 1.168041,-2.61893 2.618925,-2.61893 z"
       id="path1070"
       inkscape:connector-curvature="0" />
    <path
       style="display:inline;opacity:1;fill:none;fill-opacity:1;stroke:#ffffff;stroke-width:1.087;stroke-linecap:butt;stroke-linejoin:bevel;stroke-miterlimit:4;stroke-dasharray:none;stroke-opacity:1"
       d="m 77.608387,190.45968 c 0.02011,2.60696 0.01681,5.32323 1.503391,7.18287 1.341902,1.67865 1.551451,3.35248 1.536801,5.07812 -1.111773,0.70436 -2.571954,0.98859 -4.209495,0.80181 -0.976096,-0.11134 -1.866883,-0.0651 -2.739514,0.26727"
       id="path1064"
       inkscape:connector-curvature="0" />
    <path
       style="display:inline;opacity:1;fill:none;fill-opacity:1;stroke:#ffffff;stroke-width:1.087;stroke-linecap:butt;stroke-linejoin:bevel;stroke-miterlimit:4;stroke-dasharray:none;stroke-opacity:1"
       d="m 55.771057,205.51879 c -3.236033,-0.99469 -5.528807,-2.63267 -6.912437,-4.43076 -1.719405,-2.23445 -2.079093,-4.90042 -0.768534,-8.09055 1.338649,-3.25851 3.193298,-4.1375 4.655851,-4.96034 2.131316,-0.99043 3.294147,-2.2106 4.706444,-3.53231 -0.05738,0.50959 -0.15209,0.98184 0.04725,1.74815 3.638021,-2.20891 7.276042,-2.04008 10.914063,-2.5041 -0.76703,0.55987 -1.633148,1.10322 -1.889881,1.74814 2.930646,-0.28193 5.610315,-0.26268 7.654018,0.51972 -1.839241,0.0899 -2.868083,2.16247 -0.826824,2.29148 2.115969,0.13374 3.86559,0.20654 5.362538,0.68508 -0.978054,1.0776 -1.74553,2.36339 -1.889881,4.016 -0.174267,1.9951 -0.882884,2.69306 -1.511905,3.68527"
       id="path1062"
       inkscape:connector-curvature="0" />
    <path
       style="display:inline;opacity:1;fill:none;fill-opacity:1;stroke:#ffffff;stroke-width:1.087;stroke-linecap:butt;stroke-linejoin:bevel;stroke-miterlimit:4;stroke-dasharray:none;stroke-opacity:1"
       d="m 47.640792,209.80331 c 1.001289,-2.33571 1.258149,-5.55632 1.201369,-8.77375"
       id="path1060"
       inkscape:connector-curvature="0" />
    <path
       style="display:inline;opacity:1;fill:none;fill-opacity:1;stroke:#ffffff;stroke-width:1.087;stroke-linecap:butt;stroke-linejoin:bevel;stroke-miterlimit:4;stroke-dasharray:none;stroke-opacity:1"
       d="m 46.237628,211.40693 c -3.654828,-5.67216 -4.088873,-13.41993 0.267268,-24.25471 4.085226,-1.4666 6.644169,-1.21612 9.354435,-1.13589"
       id="path1058"
       inkscape:connector-curvature="0" />
    <path
       style="display:inline;opacity:1;fill:none;fill-opacity:1;stroke:#ffffff;stroke-width:1.087;stroke-linecap:butt;stroke-linejoin:bevel;stroke-miterlimit:4;stroke-dasharray:none;stroke-opacity:1"
       d="m 73.69957,198.04345 c -0.562449,1.02558 -0.493847,1.64076 0.33409,1.36976 1.275729,-0.41757 1.10849,0.22743 0.467719,1.43658"
       id="path1056"
       inkscape:connector-curvature="0" />
    <path
       style="display:inline;opacity:1;fill:none;fill-opacity:1;stroke:#ffffff;stroke-width:1.087;stroke-linecap:butt;stroke-linejoin:bevel;stroke-miterlimit:4;stroke-dasharray:none;stroke-opacity:1"
       d="m 74.050363,196.20598 c 1.611458,0.10503 2.894557,2.28109 2.53906,4.12597 -0.324991,1.68657 -1.200741,2.24359 -2.832463,1.66532 0.114191,1.05129 0.143678,1.68124 -0.350603,2.46944 -1.737125,2.77007 -4.353921,5.87939 -6.504573,6.87443 -3.462635,1.47832 -5.853385,-0.009 -7.370535,-0.51972 -1.177976,-0.75614 -1.594637,-2.03788 -2.918915,-3.92232 -2.532759,-3.60411 -1.654636,-5.10804 -1.434075,-8.23035 1.317203,0.46517 2.725573,0.37997 4.122168,0.37697 -1.349318,-0.66385 -2.023205,-1.55285 -2.305201,-2.57247 4.501875,0.71767 5.594984,0.55688 8.15172,-0.70159 2.333172,-1.18317 4.522817,0.56724 6.736027,3.02557 0.315191,-1.96957 1.065319,-2.66308 2.16739,-2.59125 z"
       id="path1054"
       inkscape:connector-curvature="0" />
    <path
       style="display:inline;opacity:1;fill:none;fill-opacity:1;stroke:#ffffff;stroke-width:1.087;stroke-linecap:butt;stroke-linejoin:bevel;stroke-miterlimit:4;stroke-dasharray:none;stroke-opacity:1"
       d="m 63.676963,206.02813 c -0.181773,0.48693 -0.06387,1.29092 0.902036,1.03567"
       id="path1040"
       inkscape:connector-curvature="0" />
    <path
       style="display:inline;opacity:1;fill:none;fill-opacity:1;stroke:#ffffff;stroke-width:1.087;stroke-linecap:butt;stroke-linejoin:bevel;stroke-miterlimit:4;stroke-dasharray:none;stroke-opacity:1"
       d="m 64.077868,209.16855 c 1.268788,0.38012 2.310468,0.28537 2.605878,-1.36976"
       id="path1038"
       inkscape:connector-curvature="0" />
    <path
       style="display:inline;opacity:1;fill:none;fill-opacity:1;stroke:#ffffff;stroke-width:1.087;stroke-linecap:butt;stroke-linejoin:bevel;stroke-miterlimit:4;stroke-dasharray:none;stroke-opacity:1"
       d="m 58.498618,205.29314 c 1.493857,0.43086 2.25305,-0.34045 2.77292,-1.50339"
       id="path1036"
       inkscape:connector-curvature="0" />
    <path
       style="display:inline;opacity:1;fill:none;fill-opacity:1;stroke:#ffffff;stroke-width:1.087;stroke-linecap:butt;stroke-linejoin:bevel;stroke-miterlimit:4;stroke-dasharray:none;stroke-opacity:1"
       d="m 64.846268,202.18613 c 1.886337,0.49768 2.676901,-0.39261 3.240643,-1.57021"
       id="path1034"
       inkscape:connector-curvature="0" />
    <path
       style="display:inline;opacity:1;fill:none;fill-opacity:1;stroke:#ffffff;stroke-width:1.087;stroke-linecap:butt;stroke-linejoin:bevel;stroke-miterlimit:4;stroke-dasharray:none;stroke-opacity:1"
       d="m 59.531249,210.82142 c -2.4517,-1.19827 -4.399777,-0.98639 -6.425594,-0.99218 -3.146286,0.22728 -6.165644,0.78094 -8.693454,2.59859 -0.77498,0.64747 -2.225188,1.74983 -2.433017,2.62438"
       id="rect958"
       inkscape:connector-curvature="0" />
  </g>
</svg>
