<?xml version="1.0" encoding="UTF-8" standalone="no"?>
<!-- Generator: Adobe Illustrator 16.0.0, SVG Export Plug-In . SVG Version: 6.00 Build 0)  -->

<svg
   xmlns:dc="http://purl.org/dc/elements/1.1/"
   xmlns:cc="http://creativecommons.org/ns#"
   xmlns:rdf="http://www.w3.org/1999/02/22-rdf-syntax-ns#"
   xmlns:svg="http://www.w3.org/2000/svg"
   xmlns="http://www.w3.org/2000/svg"
   xmlns:sodipodi="http://sodipodi.sourceforge.net/DTD/sodipodi-0.dtd"
   xmlns:inkscape="http://www.inkscape.org/namespaces/inkscape"
   version="1.1"
   id="Capa_1"
   x="0px"
   y="0px"
   width="496.33441"
   height="548.29889"
   viewBox="0 0 443.51939 489.95432"
   xml:space="preserve"
   sodipodi:docname="unknown-user2.svg"
   inkscape:version="0.92.3 (3ce5693, 2018-03-11)"><metadata
   id="metadata45"><rdf:RDF><cc:Work
       rdf:about=""><dc:format>image/svg+xml</dc:format><dc:type
         rdf:resource="http://purl.org/dc/dcmitype/StillImage" /><dc:title></dc:title></cc:Work></rdf:RDF></metadata><defs
   id="defs43">
	
	
	
</defs><sodipodi:namedview
   pagecolor="#ffffff"
   bordercolor="#666666"
   borderopacity="1"
   objecttolerance="10"
   gridtolerance="10"
   guidetolerance="10"
   inkscape:pageopacity="0"
   inkscape:pageshadow="2"
   inkscape:window-width="1301"
   inkscape:window-height="744"
   id="namedview41"
   showgrid="false"
   inkscape:pagecheckerboard="true"
   fit-margin-top="0"
   fit-margin-left="0"
   fit-margin-right="0"
   fit-margin-bottom="0"
   inkscape:zoom="0.65186406"
   inkscape:cx="65.062383"
   inkscape:cy="299.1128"
   inkscape:window-x="65"
   inkscape:window-y="24"
   inkscape:window-maximized="1"
   inkscape:current-layer="Capa_1" />
<path
   style="fill:none;fill-opacity:1;stroke:#ffffff;stroke-width:32.43731308;stroke-miterlimit:4;stroke-dasharray:none;stroke-opacity:1"
   inkscape:connector-curvature="0"
   id="path2"
   d="m 192.68374,258.89665 c 66.986,0 121.321,-54.354 121.321,-121.272 0,-67.042993 -54.325,-121.405993 -121.321,-121.405993 -67.032,0 -121.289995,54.373 -121.289995,121.405993 0,66.918 54.247995,121.272 121.289995,121.272 z" /><path
   style="fill:none;fill-opacity:1;stroke:#ffffff;stroke-width:32.43731308;stroke-miterlimit:4;stroke-dasharray:none;stroke-opacity:1"
   inkscape:connector-curvature="0"
   id="path4"
   d="m 355.71292,311.58001 c -1.82573,-12.19624 -22.01766,-43.93757 -35.4485,-58.13672 -6.16776,-6.52059 -30.20276,-25.4645 -39.98476,-30.7715 m -179.96842,-0.90232 c -9.561999,5.431 -30.074495,22.87018 -35.438495,29.90718 -17.405,22.71 -44.265,66.718 -48.55,126.042 -0.899,12.518 5.059,31.633 15.52,38.93 19.852,13.895 62.673,31.672 151.832995,31.672 30.868,0 74.32572,-1.904 96.31072,-4.867"
   sodipodi:nodetypes="cscccccsc" /><path
   style="fill:none;fill-opacity:1;stroke:#ffffff;stroke-width:32.43731308;stroke-miterlimit:4;stroke-dasharray:none;stroke-opacity:1"
   inkscape:connector-curvature="0"
   id="path6"
   d="m 346.01974,311.17365 c -44.886,0 -81.281,36.395 -81.281,81.281 0,44.886 36.396,81.281 81.281,81.281 44.887,0 81.281,-36.395 81.281,-81.281 0,-44.894 -36.385,-81.281 -81.281,-81.281 z"
   sodipodi:nodetypes="sssss" />
<g
   id="g10"
   transform="translate(-6.9912551,16.218657)">
</g>
<g
   id="g12"
   transform="translate(-6.9912551,16.218657)">
</g>
<g
   id="g14"
   transform="translate(-6.9912551,16.218657)">
</g>
<g
   id="g16"
   transform="translate(-6.9912551,16.218657)">
</g>
<g
   id="g18"
   transform="translate(-6.9912551,16.218657)">
</g>
<g
   id="g20"
   transform="translate(-6.9912551,16.218657)">
</g>
<g
   id="g22"
   transform="translate(-6.9912551,16.218657)">
</g>
<g
   id="g24"
   transform="translate(-6.9912551,16.218657)">
</g>
<g
   id="g26"
   transform="translate(-6.9912551,16.218657)">
</g>
<g
   id="g28"
   transform="translate(-6.9912551,16.218657)">
</g>
<g
   id="g30"
   transform="translate(-6.9912551,16.218657)">
</g>
<g
   id="g32"
   transform="translate(-6.9912551,16.218657)">
</g>
<g
   id="g34"
   transform="translate(-6.9912551,16.218657)">
</g>
<g
   id="g36"
   transform="translate(-6.9912551,16.218657)">
</g>
<g
   id="g38"
   transform="translate(-6.9912551,16.218657)">
</g>
<g
   aria-label="?"
   style="font-style:normal;font-variant:normal;font-weight:500;font-stretch:normal;font-size:142.97438049px;line-height:1.25;font-family:'Noto Sans CJK SC';-inkscape-font-specification:'Noto Sans CJK SC Medium';letter-spacing:0px;word-spacing:0px;fill:#fff9f9;fill-opacity:1;stroke:#ffffff;stroke-width:5.62961626;stroke-miterlimit:4;stroke-dasharray:none;stroke-opacity:1"
   id="text857"
   transform="matrix(0.87267882,0,0,0.87267882,36.776749,66.003106)"><path
     d="m 345.32432,395.80877 h 14.44041 c -2.43056,-21.30319 23.01888,-29.0238 23.01888,-49.89806 0,-16.72801 -11.58093,-26.16431 -28.16596,-26.16431 -11.86687,0 -21.44615,5.71897 -28.4519,13.72554 l 9.29334,8.43548 c 4.71815,-5.29005 10.5801,-8.72143 17.2999,-8.72143 9.00738,0 14.01148,6.00492 14.01148,13.86851 0,15.58421 -24.87754,24.73457 -21.44615,48.75427 z m 7.43467,35.45764 c 6.14789,0 11.00902,-4.71815 11.00902,-11.43795 0,-6.71979 -4.86113,-11.7239 -11.00902,-11.7239 -6.29088,0 -11.00903,5.00411 -11.00903,11.7239 0,6.7198 4.71815,11.43795 11.00903,11.43795 z"
     style="font-style:normal;font-variant:normal;font-weight:500;font-stretch:normal;font-size:142.97438049px;font-family:'Noto Sans CJK SC';-inkscape-font-specification:'Noto Sans CJK SC Medium';fill:#fff9f9;fill-opacity:1;stroke:#ffffff;stroke-width:5.62961626;stroke-miterlimit:4;stroke-dasharray:none;stroke-opacity:1"
     id="path859"
     inkscape:connector-curvature="0" /></g></svg>